<svg width="80" height="84" viewBox="0 0 80 84" fill="none" xmlns="http://www.w3.org/2000/svg">
<rect y="2" width="80" height="80" rx="40" fill="#06402A"/>
<rect width="80" height="84" rx="40" fill="#06402A"/>
<g clip-path="url(#clip0_816_2783)">
<path d="M26.9519 31.8814L27.7519 33.8094L27.7692 33.8525L27.7259 33.8741L24.6904 35.5174L24.6471 35.5433L24.6212 35.5002L23.6093 33.8957C23.3975 33.9733 23.164 34.0509 22.9002 34.1415C22.511 34.2752 22.0527 34.4305 21.5467 34.616C20.9457 34.8359 20.3792 35.0645 19.8819 35.3018C19.5879 35.4398 19.3155 35.5864 19.0647 35.7417C19.5879 36.9408 20.1803 38.0665 20.8462 39.1275C21.5857 40.3093 22.4072 41.3962 23.3023 42.3926C24.0634 43.2423 24.7812 43.9065 25.4601 44.4586C26.1346 45.0063 26.7789 45.4463 27.393 45.8388C31.3279 48.362 32.5733 50.4064 33.9786 52.701C34.8478 54.1244 35.7818 55.6512 37.5201 57.4584C39.0898 59.0888 40.7329 60.318 42.4712 61.1677C44.1966 62.0131 46.03 62.4832 47.9932 62.6126C50.9249 62.8024 54.7518 62.4142 58.4273 62.0433C60.131 61.8708 61.8045 61.7026 63.3438 61.5904L63.3395 61.5689C63.253 61.0513 63.1406 60.5984 62.9893 60.2102C62.8509 59.8565 62.6823 59.5675 62.4704 59.339C61.5104 58.3081 59.8716 58.3685 58.1938 58.4289C56.9441 58.472 55.6728 58.5195 54.4794 58.1744C52.2092 57.5145 50.5228 55.7979 49.3034 53.6025C48.4731 54.2279 47.6602 54.6506 46.8343 54.8317C45.8441 55.0517 44.8928 54.9223 43.9501 54.3918C43.388 54.0726 43.1934 53.3609 43.509 52.8002C43.829 52.2395 44.5425 52.0454 45.1046 52.3603C45.5111 52.5889 45.9132 52.6449 46.3284 52.5544C46.8429 52.4422 47.4137 52.1144 48.0537 51.6098C48.1315 51.5494 48.2137 51.4976 48.3002 51.4588C48.1661 51.1138 48.0407 50.7644 47.9196 50.4107C47.2191 50.8895 46.5273 51.2173 45.8311 51.3682C44.8409 51.5882 43.8896 51.4588 42.9469 50.9283C42.3848 50.6091 42.1902 49.8975 42.5058 49.3368C42.8258 48.776 43.5393 48.582 44.1014 48.8968C44.5079 49.1254 44.91 49.1815 45.3252 49.0909C45.8397 48.9788 46.4105 48.651 47.0505 48.1463C47.1154 48.0946 47.1802 48.0514 47.2537 48.0169C47.1283 47.4692 47.0202 46.9214 46.9251 46.3822C46.2246 46.861 45.5327 47.1888 44.8322 47.3441C43.842 47.564 42.8907 47.4347 41.948 46.9041C41.3859 46.585 41.1913 45.8733 41.507 45.3126C41.8269 44.7519 42.5404 44.5578 43.1026 44.8726C43.509 45.1012 43.9112 45.1573 44.3263 45.0667C44.8409 44.9546 45.4116 44.6268 46.0516 44.1222C46.2116 43.9928 46.3976 43.9151 46.5835 43.8849C46.5273 43.3027 46.4884 42.7376 46.4624 42.2028L46.4581 42.1769L46.4235 41.7715C46.3197 40.5293 46.2505 39.6796 45.7965 39.244C44.9706 38.446 43.656 38.6186 42.3675 38.7911C41.7967 38.8687 41.2259 38.9421 40.6551 38.9507C38.7482 38.9723 37.0228 38.5754 35.5483 37.592C34.0911 36.6173 32.9106 35.0818 32.0847 32.8174C31.3928 31.394 30.7096 30.6867 29.9745 30.5573C29.2178 30.4236 28.2837 30.8635 27.1335 31.7477L27.1292 31.752L26.9519 31.8814ZM26.2082 30.5357C27.6654 29.4186 28.9497 28.8622 30.1518 29.0391L39.7341 15.8149C39.9805 15.4742 40.4519 15.3966 40.7935 15.6424C41.1351 15.8883 41.2129 16.3584 40.9664 16.6991L31.5874 29.6472C32.2749 30.1605 32.8933 30.9929 33.4684 32.1877C33.4814 32.2135 33.49 32.2394 33.4986 32.2653C34.2035 34.2192 35.1894 35.5217 36.3915 36.324C37.5893 37.1262 39.0292 37.4454 40.6378 37.4281C41.1091 37.4238 41.6367 37.3548 42.1685 37.2815C43.0853 37.1607 44.0106 37.0356 44.8841 37.178L61.372 18.3338C61.6488 18.019 62.1288 17.9888 62.4444 18.2605C62.7601 18.5322 62.7904 19.0153 62.5179 19.3302L46.3889 37.7646C46.5489 37.8767 46.7046 38.0061 46.8602 38.1528C47.7251 38.9895 47.8159 40.0678 47.9456 41.6421C47.9542 41.7327 47.9629 41.8276 47.9802 42.0432C47.9845 42.0734 47.9845 42.1036 47.9845 42.1338C48.1186 45.1487 48.7629 49.0823 50.2677 52.1662C51.34 54.3702 52.8448 56.117 54.9031 56.7166C55.8631 56.9926 57.0133 56.9538 58.1419 56.915C60.1743 56.8416 62.1547 56.7726 63.586 58.3081C63.9363 58.6834 64.2043 59.1362 64.4119 59.6624C64.6022 60.1498 64.7405 60.7105 64.8443 61.3316C64.8789 61.5343 64.9049 61.7414 64.9222 61.9484C64.9697 62.0433 65.0043 62.1468 65.0086 62.259C65.013 62.3754 64.9957 62.4876 64.9524 62.5911C64.9567 63.4321 64.8227 64.2775 64.4941 65.0323C64.0617 66.033 63.3136 66.8654 62.1417 67.3226C61.1904 67.6935 59.331 67.9739 57.3117 68.168C54.5313 68.4311 51.4006 68.5432 49.9909 68.5044C45.1263 68.375 41.5545 67.5339 38.5709 65.8949C35.5829 64.2516 33.2176 61.8276 30.7571 58.5195C27.8427 54.6031 27.1638 54.0942 24.7725 52.3085C24.2234 51.8988 23.5921 51.4243 22.8872 50.8852C20.8635 49.3238 18.8009 47.4131 17.3048 45.4032C16.2064 43.9281 15.4021 42.384 15.1211 40.8657C14.827 39.2655 15.1038 37.7085 16.1935 36.2981C16.5869 35.7935 17.0842 35.3104 17.6939 34.8532C18.135 34.5254 18.6582 34.2278 19.2333 33.9517C19.8041 33.68 20.4095 33.4342 21.0322 33.2056C21.6159 32.9899 22.0483 32.8433 22.4159 32.7182C23.3672 32.3904 23.8818 32.2135 24.552 31.7822C24.7509 31.6528 24.9801 31.4932 25.2482 31.2948C25.5379 31.0792 25.8449 30.842 26.1822 30.5702C26.1865 30.5487 26.1952 30.54 26.2082 30.5357ZM17.828 36.7122C17.6637 36.8761 17.5166 37.0443 17.3869 37.2125C16.5869 38.2433 16.388 39.3906 16.6042 40.5767C16.8377 41.8448 17.5426 43.1776 18.5112 44.4845C19.9165 46.3736 21.871 48.1808 23.8039 49.6689C24.5693 50.2598 25.1574 50.6997 25.672 51.0836C28.2016 52.9771 28.9237 53.5119 31.9679 57.6051C34.3029 60.7407 36.5255 63.031 39.293 64.5536C42.0648 66.0761 45.416 66.8568 50.0169 66.9819C51.3833 67.0164 54.4318 66.9128 57.156 66.6497C59.05 66.4686 60.7623 66.2184 61.5753 65.8993C62.3233 65.606 62.8033 65.0711 63.0844 64.4242C63.2574 64.0187 63.3611 63.5745 63.4001 63.1086C61.8823 63.2165 60.2391 63.3847 58.5657 63.5529C54.8253 63.9325 50.9292 64.325 47.8894 64.1309C45.7316 63.9928 43.7123 63.4666 41.7967 62.5307C39.894 61.599 38.1082 60.2706 36.4174 58.5108C34.5624 56.5828 33.5851 54.9827 32.6727 53.4903C31.3668 51.3553 30.2037 49.4532 26.5671 47.1155C25.9184 46.7014 25.2352 46.2313 24.4958 45.6361C23.765 45.0409 22.991 44.3249 22.1651 43.4062C21.2008 42.3365 20.3273 41.1806 19.549 39.9341C18.9177 38.9248 18.3425 37.8508 17.828 36.7122Z" fill="white"/>
</g>
<defs>
<clipPath id="clip0_816_2783">
<rect width="50" height="53" fill="white" transform="translate(15 15.5)"/>
</clipPath>
</defs>
</svg>
