<svg width="15" height="16" viewBox="0 0 15 16" fill="none" xmlns="http://www.w3.org/2000/svg">
<g clip-path="url(#clip0_810_1255)">
<path d="M13.5938 8.70316H2.34375V3.42972C2.34321 3.23112 2.38206 3.03439 2.45806 2.85092C2.53406 2.66744 2.6457 2.50086 2.78651 2.36082L2.79823 2.3491C3.01891 2.12874 3.30225 1.98189 3.60952 1.92861C3.9168 1.87532 4.23304 1.9182 4.51503 2.05139C4.24871 2.49418 4.13802 3.01327 4.20054 3.52619C4.26306 4.0391 4.4952 4.5164 4.86009 4.88226L5.18092 5.20309L4.59038 5.79365L5.25325 6.45652L5.84379 5.86599L9.11593 2.59391L9.70646 2.00337L9.04356 1.34047L8.453 1.93101L8.13217 1.61018C7.74805 1.22713 7.2417 0.991004 6.70136 0.94295C6.16102 0.894896 5.62095 1.03796 5.17526 1.34721C4.70529 1.05041 4.14834 0.922273 3.59591 0.983861C3.04349 1.04545 2.52843 1.29309 2.13536 1.68611L2.12364 1.69783C1.89549 1.92474 1.71461 2.19464 1.59147 2.49192C1.46833 2.7892 1.40537 3.10795 1.40625 3.42972V8.70316H0.46875V9.64066H1.40625V10.5401C1.40623 10.6156 1.41842 10.6907 1.44234 10.7624L2.31445 13.3786C2.36099 13.5187 2.45049 13.6405 2.57022 13.7268C2.68995 13.8131 2.83383 13.8595 2.98143 13.8594H3.35936L3.01758 15.0313H3.99413L4.33594 13.8594H10.4326L10.7842 15.0313H11.7627L11.4111 13.8594H12.0185C12.1661 13.8596 12.31 13.8132 12.4297 13.7269C12.5495 13.6406 12.639 13.5187 12.6855 13.3786L13.5576 10.7624C13.5815 10.6907 13.5937 10.6156 13.5938 10.5401V9.64066H14.5312V8.70316H13.5938ZM5.52305 2.27308C5.78133 2.01536 6.13129 1.87062 6.49616 1.87062C6.86102 1.87062 7.21099 2.01536 7.46927 2.27308L7.79004 2.59391L5.84388 4.54007L5.52305 4.2193C5.26534 3.96101 5.12062 3.61105 5.12062 3.24619C5.12062 2.88133 5.26534 2.53136 5.52305 2.27308ZM12.6562 10.502L11.8496 12.9219H3.15035L2.34375 10.502V9.64066H12.6562V10.502Z" fill="black"/>
</g>
<defs>
<clipPath id="clip0_810_1255">
<rect width="15" height="15" fill="white" transform="translate(0 0.5)"/>
</clipPath>
</defs>
</svg>
