<svg width="20" height="20" viewBox="0 0 20 20" fill="none" xmlns="http://www.w3.org/2000/svg">
<g clip-path="url(#clip0_810_1238)">
<path d="M18.5789 9.30058H18.3817V6.04204C18.3817 4.89938 17.4521 3.96973 16.3095 3.96973H3.69054C2.54794 3.96973 1.61829 4.89938 1.61829 6.04204V9.30058H1.42108C0.637524 9.30058 0 9.93811 0 10.7217V12.8273C0 13.6109 0.637524 14.2484 1.42114 14.2484H3.1781V15.5858C3.1781 15.8313 3.37708 16.0302 3.62254 16.0302C3.868 16.0302 4.06698 15.8313 4.06698 15.5858V14.2484H15.9331V15.5858C15.9331 15.8313 16.1321 16.0302 16.3775 16.0302C16.623 16.0302 16.822 15.8313 16.822 15.5858V14.2484H18.5789C19.3625 14.2484 20.0001 13.6109 20.0001 12.8273V10.7217C20 9.93811 19.3625 9.30058 18.5789 9.30058ZM2.50717 6.04204C2.50717 5.38954 3.03797 4.85862 3.69054 4.85862H16.3095C16.962 4.85862 17.4928 5.38947 17.4928 6.04204V9.30058H16.923V8.40808C16.923 7.83893 16.4601 7.37595 15.891 7.37595H11.3352C10.766 7.37595 10.3029 7.83893 10.3029 8.40808V9.30058H9.69702V8.40808C9.69702 7.83893 9.23397 7.37595 8.66476 7.37595H4.10902C3.53994 7.37595 3.07695 7.83893 3.07695 8.40808V9.30058H2.50717V6.04204ZM11.1918 9.30058V8.40808C11.1918 8.33043 11.2575 8.26484 11.3352 8.26484H15.891C15.9686 8.26484 16.0342 8.33043 16.0342 8.40808V9.30058H11.1918ZM3.96584 9.30058V8.40808C3.96584 8.33043 4.03137 8.26484 4.10902 8.26484H8.66483C8.74254 8.26484 8.80819 8.33043 8.80819 8.40808V9.30058H3.96584ZM19.1111 12.8273C19.1111 13.1207 18.8723 13.3595 18.5789 13.3595H1.42114C1.12768 13.3595 0.888889 13.1207 0.888889 12.8273V10.7217C0.888889 10.4283 1.12768 10.1895 1.42114 10.1895H18.5789C18.8723 10.1895 19.1111 10.4283 19.1111 10.7217V12.8273Z" fill="black"/>
</g>
<defs>
<clipPath id="clip0_810_1238">
<rect width="20" height="20" fill="white"/>
</clipPath>
</defs>
</svg>
