<svg width="80" height="80" viewBox="0 0 80 80" fill="none" xmlns="http://www.w3.org/2000/svg">
<rect width="80" height="80" rx="40" fill="#06402A"/>
<g clip-path="url(#clip0_816_2809)">
<path d="M54.6077 15.3036C54.9577 14.922 55.5436 14.8974 55.922 15.2502C56.3005 15.6031 56.3249 16.1939 55.9749 16.5754L48.3577 24.8876L48.3455 24.904C47.4137 26.0404 46.7749 27.0907 46.4901 28.0508C46.2378 28.9 46.2744 29.6713 46.6488 30.3442C46.8481 30.7052 46.783 31.1483 46.5186 31.4396L42.9012 35.3864C42.5472 34.9967 42.2664 34.6808 42.0793 34.4756C41.9938 34.3608 41.8962 34.25 41.7944 34.1433L41.7863 34.1515C41.7375 34.0982 41.6846 34.049 41.6317 33.9997L44.7241 30.6232C44.362 29.6467 44.366 28.6087 44.6997 27.5051C45.0578 26.3071 45.8187 25.0311 46.9132 23.7019C46.9377 23.669 46.958 23.6362 46.9865 23.6075L54.5996 15.2954L54.6077 15.3036ZM38.2463 37.5691C37.9045 37.1834 37.937 36.5885 38.3195 36.2439C38.702 35.8993 39.292 35.9321 39.6338 36.3178C43.4627 40.642 55.2995 53.4385 58.5791 58.2223C62.9045 64.3969 56.2069 66.3416 53.9852 64.0933C48.4351 58.6818 36.6512 44.8843 31.4714 39.0338C29.6077 39.8297 27.797 39.9528 25.9782 39.4276C24.021 38.8656 22.1045 37.5486 20.1595 35.5259L20.1351 35.5013C18.654 33.9259 17.4943 32.3709 16.6561 30.8324C15.7975 29.2488 15.2726 27.6815 15.0854 26.1266C14.8861 24.4527 15.0407 22.8936 15.4883 21.511C16.0132 19.8863 16.945 18.5119 18.1657 17.4903C19.3945 16.4646 20.9041 15.8 22.5887 15.5949C23.9884 15.4267 25.5143 15.5702 27.0931 16.0913C29.2782 16.8093 31.8254 18.594 33.9372 20.8833C35.4956 22.5695 36.8302 24.5429 37.6237 26.5738C38.4497 28.6908 38.702 30.8816 38.0387 32.933C37.6481 34.1474 36.9401 35.288 35.8415 36.3178C35.4631 36.6706 34.8771 36.646 34.5272 36.2685C34.1772 35.887 34.2017 35.2962 34.576 34.9433C35.4264 34.1433 35.9717 33.2694 36.2687 32.3463C36.7814 30.7586 36.5658 28.9985 35.8903 27.2671C35.1823 25.4537 33.9819 23.6814 32.5741 22.1592C30.6698 20.0997 28.4115 18.5037 26.5072 17.876C25.201 17.4493 23.9518 17.3262 22.8084 17.4657C21.4819 17.6298 20.2938 18.1427 19.3457 18.9427C18.3936 19.7427 17.6652 20.8217 17.2461 22.1059C16.884 23.2259 16.7578 24.5142 16.9246 25.905C17.0833 27.2179 17.535 28.5595 18.2756 29.9298C19.0527 31.337 20.1188 32.7607 21.4901 34.2172L21.4982 34.2295C23.2153 36.0142 24.8633 37.1629 26.495 37.6306C28.0371 38.0737 29.6077 37.9014 31.2476 37.0768C31.6219 36.8593 32.1061 36.9332 32.4032 37.2696C37.4569 42.9765 49.7493 57.3402 55.1937 62.6614C57.5578 63.6338 58.868 62.4358 57.7368 60.3229C55.9749 57.0243 40.8382 40.5067 38.2463 37.5691ZM33.339 45.8197L21.4738 58.7638C21.4494 58.7884 21.429 58.813 21.4006 58.8377C19.6672 60.7249 22.7352 63.4738 24.6395 61.6357L36.1629 49.0609L37.3999 50.4763L25.966 62.9527C25.9416 62.9814 25.9172 63.006 25.8846 63.0348C25.201 63.6132 24.5133 63.9907 23.8175 64.1466C23.1014 64.3107 22.3975 64.2369 21.722 63.9168C21.6081 63.8717 21.5023 63.8143 21.4087 63.7281L19.7689 62.1978C19.7445 62.1732 19.7201 62.1527 19.6956 62.124C19.0609 61.3855 18.7598 60.5977 18.8411 59.7649C18.9185 58.9772 19.3335 58.2099 20.1188 57.4715L32.098 44.4002L33.339 45.8197ZM45.7739 38.5743L46.4779 37.8071C46.8278 37.4255 47.4178 37.4009 47.7922 37.7537C48.1665 38.1066 48.195 38.6973 47.8451 39.0789L47.0312 39.9651L45.7739 38.5743ZM57.5008 18.0483C57.8507 17.6667 58.4367 17.6421 58.8151 17.995C59.1935 18.3478 59.2179 18.9386 58.868 19.3201L52.1908 26.6107C51.8408 26.9923 51.2549 27.0169 50.8765 26.664C50.498 26.3112 50.4736 25.7204 50.8236 25.3389L57.5008 18.0483ZM60.3898 20.7438C60.7397 20.3622 61.3257 20.3376 61.7041 20.6905C62.0825 21.0433 62.1069 21.6341 61.757 22.0156L55.0838 29.3021C54.7339 29.6836 54.1479 29.7083 53.7695 29.3554C53.3911 29.0026 53.3667 28.4118 53.7166 28.0302L60.3898 20.7438ZM63.3846 23.546C63.7345 23.1644 64.3205 23.1398 64.6989 23.4926C65.0773 23.8455 65.1017 24.4404 64.7518 24.8178L57.1346 33.134C57.1061 33.1628 57.0776 33.1874 57.0492 33.2161C55.3158 34.8982 53.6597 35.8706 52.0768 36.1455C50.3597 36.445 48.785 35.9526 47.3405 34.6808C46.9539 34.3402 46.9173 33.7454 47.251 33.3597C47.5887 32.9699 48.1787 32.933 48.5612 33.2694C49.5581 34.1474 50.6242 34.4921 51.7513 34.291C52.9639 34.0818 54.2985 33.2735 55.7552 31.8581L55.7633 31.8499L63.3765 23.5419L63.3846 23.546Z" fill="white"/>
</g>
<defs>
<clipPath id="clip0_816_2809">
<rect width="50" height="50" fill="white" transform="translate(15 15)"/>
</clipPath>
</defs>
</svg>
