<svg width="80" height="80" viewBox="0 0 80 80" fill="none" xmlns="http://www.w3.org/2000/svg">
<rect width="80" height="80" rx="40" fill="#06402A"/>
<g clip-path="url(#clip0_816_2767)">
<path d="M15.6552 54.5426L17.8445 52.3535C17.9014 52.2966 17.9625 52.2437 18.0235 52.1908L16.4528 50.6201C16.4283 50.5957 16.408 50.5713 16.3876 50.5469C15.997 50.1196 15.8017 49.5785 15.8017 49.0413C15.8017 48.4717 16.0214 47.902 16.4568 47.4666L18.6461 45.2775C18.7031 45.2205 18.7641 45.1676 18.8252 45.1147L17.2544 43.5441C16.819 43.1087 16.6033 42.535 16.6033 41.9653C16.6033 41.3957 16.8231 40.826 17.2544 40.3906L19.4437 38.2015C19.8791 37.7661 20.4529 37.5505 21.0226 37.5505C21.5964 37.5505 22.1661 37.7661 22.6015 38.2015L41.8129 57.4113C42.2483 57.8467 42.464 58.4204 42.464 58.9901C42.464 59.5638 42.2483 60.1335 41.8129 60.5688L39.6236 62.758C39.5992 62.7824 39.5748 62.8027 39.5503 62.8231C39.1231 63.2137 38.5818 63.409 38.0447 63.409C37.475 63.409 36.9053 63.1893 36.4698 62.758L35.1392 61.4274C35.0903 61.4884 35.0374 61.5495 34.9805 61.6064L32.7912 63.7956C32.7667 63.82 32.7423 63.8403 32.7179 63.8607C32.2947 64.2472 31.7535 64.4426 31.2123 64.4426C30.6385 64.4426 30.0688 64.2269 29.6374 63.7915L27.8225 61.9767C27.7737 62.0378 27.7208 62.0988 27.6597 62.1558L25.4704 64.3449C25.035 64.7803 24.4612 64.9959 23.8915 64.9959C23.3218 64.9959 22.748 64.7803 22.3126 64.3449L15.6552 57.7043C15.2197 57.2689 15 56.6952 15 56.1255C15 55.5518 15.2197 54.9821 15.6552 54.5426ZM41.7966 18.654L39.6073 20.8431L39.587 20.8634C39.5544 20.9082 39.5381 20.9611 39.5381 21.014C39.5381 21.075 39.5625 21.1401 39.6073 21.1849L58.8187 40.3947C58.8634 40.4395 58.9245 40.4639 58.9896 40.4639C59.0506 40.4639 59.1157 40.4395 59.1605 40.3947L61.3498 38.2056L61.3701 38.1852C61.4027 38.1445 61.419 38.0876 61.419 38.0347C61.419 37.9696 61.3986 37.9085 61.3539 37.8638L58.4524 34.9626L45.28 21.7993L42.1384 18.658C42.0937 18.6133 42.0326 18.5889 41.9675 18.5889C41.9024 18.5848 41.8414 18.6092 41.7966 18.654ZM44.0836 34.2505C44.6289 33.7052 45.516 33.7052 46.0654 34.2505C46.6106 34.7957 46.6106 35.6828 46.0654 36.2321L36.4617 45.8268C35.9164 46.3721 35.0293 46.3721 34.4799 45.8268C33.9346 45.2816 33.9346 44.3945 34.4799 43.8452L44.0836 34.2505ZM55.9579 17.063L53.7686 19.2521C53.7198 19.3009 53.6954 19.362 53.6954 19.423C53.6954 19.4759 53.7116 19.5247 53.7442 19.5695L53.7686 19.5939L60.4098 26.2345L60.4301 26.2549C60.4708 26.2874 60.5237 26.2996 60.5766 26.2996C60.6377 26.2996 60.7028 26.2752 60.7475 26.2305L62.9368 24.0413C62.9857 23.9925 63.0101 23.9315 63.0101 23.8704C63.0101 23.8094 62.9857 23.7443 62.9409 23.6995L56.2997 17.063C56.255 17.0182 56.1939 16.9938 56.1288 16.9938C56.0637 16.9938 56.0027 17.0182 55.9579 17.063ZM52.3606 17.8402L54.5499 15.651C54.9854 15.2157 55.5591 15 56.1288 15C56.6985 15 57.2723 15.2157 57.7077 15.651L64.3489 22.2917C64.7803 22.723 65 23.2967 64.9959 23.8664C64.9959 24.4401 64.7803 25.0138 64.3489 25.4452L62.1596 27.6343C62.1026 27.6912 62.0416 27.7441 61.9805 27.797L63.7955 29.6118C64.2309 30.0472 64.4466 30.6209 64.4466 31.1906C64.4466 31.7643 64.2268 32.334 63.7955 32.7694L61.6062 34.9585C61.5492 35.0155 61.4882 35.0684 61.4271 35.1172L62.7578 36.4478C63.1932 36.8831 63.4089 37.4528 63.4089 38.0225C63.4089 38.5636 63.2136 39.1048 62.8229 39.528C62.8026 39.5524 62.7822 39.5768 62.7578 39.6012L60.5685 41.7904C60.1331 42.2257 59.5593 42.4414 58.9896 42.4414C58.4158 42.4414 57.8461 42.2217 57.4107 41.7904L38.1993 22.5928C37.7639 22.1574 37.5442 21.5837 37.5442 21.014C37.5442 20.4728 37.7395 19.9316 38.1301 19.5085C38.1505 19.484 38.1708 19.4596 38.1952 19.4352L40.3846 17.2461C40.82 16.8107 41.3897 16.5951 41.9594 16.5951C42.5332 16.5951 43.1029 16.8148 43.5383 17.2461L45.1091 18.8167C45.1579 18.7557 45.2108 18.6947 45.2718 18.6377L47.4611 16.4486C47.8966 16.0132 48.4703 15.7935 49.04 15.7935C49.6138 15.7935 50.1835 16.0132 50.6189 16.4486L52.1897 18.0192C52.2508 17.9582 52.3037 17.8971 52.3606 17.8402ZM48.8773 17.8605L46.688 20.0496C46.6432 20.0944 46.6188 20.1554 46.6188 20.2205C46.6188 20.2816 46.6391 20.3426 46.6839 20.3874L46.688 20.3914L59.8564 33.5588C59.9011 33.6035 59.9622 33.6279 60.0273 33.6279C60.0924 33.6279 60.1534 33.6076 60.1982 33.5628L62.3875 31.3737C62.4322 31.3289 62.4567 31.2679 62.4567 31.2028C62.4567 31.1418 62.4322 31.0767 62.3875 31.0319L59.0059 27.6506L49.2191 17.8605C49.1743 17.8158 49.1092 17.7913 49.0482 17.7913C48.9831 17.7913 48.922 17.8117 48.8773 17.8605ZM21.7999 45.2775L34.9683 58.4448L37.8616 61.3379C37.9063 61.3827 37.9714 61.403 38.0325 61.403C38.0854 61.403 38.1383 61.3867 38.183 61.3542L38.2034 61.3338L40.3927 59.1447C40.4375 59.0999 40.4619 59.0389 40.4619 58.9738C40.4619 58.9128 40.4375 58.8477 40.3927 58.8029L21.1854 39.6053C21.1406 39.5605 21.0796 39.5361 21.0145 39.5361C20.9534 39.5361 20.8883 39.5605 20.8436 39.6053L18.6543 41.7944C18.6095 41.8392 18.5892 41.9043 18.5892 41.9653C18.5892 42.0264 18.6136 42.0915 18.6583 42.1362L21.7999 45.2775ZM33.5806 59.8771L33.5603 59.8568L20.3878 46.6854L20.3634 46.661C20.3186 46.6284 20.2698 46.6121 20.2169 46.6121C20.1559 46.6121 20.0948 46.6366 20.046 46.6854L17.8567 48.8745C17.8119 48.9193 17.7916 48.9844 17.7916 49.0454C17.7916 49.0983 17.8078 49.1512 17.8404 49.196L17.8607 49.2163L21.0023 52.3576L27.6434 58.9982L31.0291 62.3836C31.078 62.4325 31.139 62.4528 31.2001 62.4528C31.253 62.4528 31.3059 62.4365 31.3506 62.404L31.371 62.3836L33.5603 60.1945C33.605 60.1497 33.6254 60.0846 33.6254 60.0236C33.6254 59.9707 33.6091 59.9178 33.5806 59.8771ZM19.2525 53.7655L17.0632 55.9546C17.0184 55.9994 16.994 56.0604 16.994 56.1255C16.994 56.1906 17.0184 56.2516 17.0632 56.2964L23.7043 62.937C23.7491 62.9818 23.8101 63.0062 23.8752 63.0062C23.9363 63.0062 24.0014 62.9818 24.0461 62.937L26.2355 60.7479C26.2802 60.7031 26.3046 60.6421 26.3046 60.577C26.3046 60.5119 26.2802 60.4508 26.2355 60.4061L19.5902 53.7655L19.5861 53.7614C19.5414 53.7166 19.4803 53.6963 19.4193 53.6963C19.3583 53.6963 19.2972 53.7207 19.2525 53.7655Z" fill="white"/>
</g>
<defs>
<clipPath id="clip0_816_2767">
<rect width="50" height="50" fill="white" transform="translate(15 15)"/>
</clipPath>
</defs>
</svg>
