<svg width="80" height="80" viewBox="0 0 80 80" fill="none" xmlns="http://www.w3.org/2000/svg">
<rect width="80" height="80" rx="40" fill="#06402A"/>
<path d="M23.5815 56.2409C23.964 56.6951 23.9193 57.3641 23.4635 57.7453C23.0078 58.1265 22.3364 58.0819 21.9539 57.6277C17.3275 52.2427 14.943 46.144 15 39.9724C15.061 33.9467 17.417 27.8886 22.2632 22.3617C22.6457 21.9237 23.317 21.8791 23.7728 22.2603C24.2122 22.6414 24.257 23.3105 23.8745 23.7647C19.3782 28.882 17.181 34.4698 17.1403 39.9845C17.0955 45.6453 19.2928 51.2492 23.5815 56.2409ZM29.1724 51.0587C29.567 51.4966 29.5223 52.1657 29.0828 52.5631C28.6434 52.9564 27.972 52.9118 27.5732 52.4738C24.0169 48.4635 22.1859 44.2139 22.2591 39.9116C22.3323 35.7228 24.1919 31.5218 27.9842 27.5115C28.3952 27.0897 29.0666 27.0573 29.4938 27.4669C29.9211 27.8764 29.9495 28.5455 29.5386 28.9713C26.1287 32.5883 24.4442 36.2945 24.3831 39.944C24.3262 43.707 25.966 47.4741 29.1561 51.0749L29.1724 51.0587ZM34.1203 46.1278C34.4865 46.582 34.4295 47.251 33.9575 47.616C33.5018 47.9809 32.8304 47.9242 32.4642 47.4538C30.5477 45.106 29.5508 42.5513 29.5345 39.9562C29.5182 37.434 30.4704 34.8915 32.4194 32.5153C32.7856 32.0611 33.457 31.9881 33.9127 32.3531C34.3685 32.718 34.4417 33.3871 34.0755 33.8413C32.452 35.8241 31.6585 37.9125 31.6585 39.9399C31.6585 42.0282 32.5089 44.1287 34.104 46.0954L34.1203 46.1278ZM58.0461 57.6237C57.6636 58.0778 56.9922 58.1184 56.5364 57.7412C56.0807 57.3601 56.04 56.691 56.4184 56.2369C60.7072 51.2452 62.9207 45.6291 62.8597 39.9845C62.8149 34.4698 60.6177 28.882 56.1255 23.7606C55.743 23.3227 55.7878 22.6536 56.2272 22.2562C56.6667 21.8751 57.338 21.9197 57.7368 22.3576C62.583 27.8886 64.939 33.9426 65 39.9683C65.057 46.144 62.6725 52.2427 58.0461 57.6237ZM52.439 52.4617C52.0443 52.8996 51.3688 52.9442 50.9294 52.5509C50.4899 52.1576 50.4451 51.4844 50.8398 51.0465C54.0462 47.4416 55.6697 43.6786 55.6128 39.9156C55.5558 36.2499 53.8712 32.5437 50.4614 28.9429C50.0504 28.5212 50.0789 27.848 50.5062 27.4385C50.9294 27.0289 51.6048 27.0573 52.0158 27.4831C55.8081 31.4934 57.6676 35.6822 57.7409 39.8832C57.8141 44.1855 55.9993 48.431 52.4267 52.4455L52.439 52.4617ZM47.548 47.4578C47.1818 47.912 46.5104 47.985 46.0547 47.62C45.5989 47.2551 45.5257 46.586 45.8919 46.1319C47.5032 44.1612 48.3374 42.0607 48.3374 39.9764C48.3374 37.9327 47.5602 35.8606 45.9204 33.8778C45.5542 33.4236 45.6112 32.7545 46.0832 32.3896C46.5389 32.0246 47.2103 32.0814 47.5765 32.5518C49.5255 34.9321 50.4736 37.4705 50.4614 39.9927C50.4451 42.5878 49.4523 45.1303 47.5317 47.4903L47.548 47.4578ZM39.9796 43.926C39.6338 43.926 39.2838 43.8976 38.938 43.8368C38.3927 43.6827 37.8841 43.4232 37.4528 43.0704C37.3551 42.9893 37.2575 42.9041 37.168 42.8149C36.4355 42.085 35.9961 41.0916 35.9961 39.9845C35.9961 38.8775 36.4518 37.8841 37.168 37.1542C37.9004 36.4243 38.8973 35.9863 40.0081 35.9863C41.119 35.9863 42.1159 36.4405 42.8483 37.1542C43.5807 37.8841 44.0202 38.8775 44.0202 39.9845C44.0202 40.5968 43.8818 41.1767 43.6336 41.6957C42.9297 43.1758 41.6195 43.93 39.9796 43.926Z" fill="white"/>
</svg>
