<svg width="24" height="25" viewBox="0 0 24 25" fill="none" xmlns="http://www.w3.org/2000/svg">
<path d="M12.0002 2.88818C8.00619 2.88818 4.7569 6.13748 4.7569 10.1314C4.7569 15.088 11.2389 22.3645 11.5149 22.6718C11.7741 22.9605 12.2267 22.96 12.4855 22.6718C12.7614 22.3645 19.2434 15.088 19.2434 10.1314C19.2433 6.13748 15.9941 2.88818 12.0002 2.88818ZM12.0002 13.7757C9.99068 13.7757 8.35592 12.1409 8.35592 10.1314C8.35592 8.12193 9.99072 6.48716 12.0002 6.48716C14.0096 6.48716 15.6444 8.12197 15.6444 10.1314C15.6444 12.1409 14.0096 13.7757 12.0002 13.7757Z" fill="#06402A"/>
</svg>
