<svg width="24" height="25" viewBox="0 0 24 25" fill="none" xmlns="http://www.w3.org/2000/svg">
<path d="M17 21.889C15.3463 21.8875 13.7183 21.4788 12.26 20.699L11.81 20.449C8.70075 18.7773 6.15169 16.2282 4.48 13.119L4.23 12.669C3.42982 11.2024 3.00713 9.55964 3 7.88894V7.21894C2.99958 6.6859 3.21196 6.17474 3.59 5.79894L5.28 4.10894C5.44413 3.94354 5.67581 3.86382 5.90696 3.8932C6.13811 3.92258 6.34248 4.05774 6.46 4.25894L8.71 8.11894C8.93753 8.51183 8.87183 9.0087 8.55 9.32894L6.66 11.219C6.50304 11.3742 6.46647 11.614 6.57 11.809L6.92 12.469C8.17704 14.7974 10.0893 16.7062 12.42 17.959L13.08 18.319C13.275 18.4225 13.5148 18.3859 13.67 18.229L15.56 16.339C15.8802 16.0172 16.3771 15.9515 16.77 16.179L20.63 18.429C20.8312 18.5465 20.9664 18.7509 20.9957 18.982C21.0251 19.2132 20.9454 19.4449 20.78 19.609L19.09 21.299C18.7142 21.677 18.203 21.8894 17.67 21.889H17Z" fill="#06402A"/>
</svg>
