<svg width="24" height="25" viewBox="0 0 24 25" fill="none" xmlns="http://www.w3.org/2000/svg">
<path d="M21.593 7.59168C21.4791 7.16908 21.2565 6.78368 20.9473 6.47385C20.6382 6.16401 20.2533 5.94054 19.831 5.82568C18.265 5.39568 12 5.38868 12 5.38868C12 5.38868 5.73596 5.38168 4.16896 5.79268C3.74689 5.91283 3.36279 6.13946 3.05353 6.45081C2.74427 6.76217 2.52025 7.1478 2.40296 7.57068C1.98996 9.13668 1.98596 12.3847 1.98596 12.3847C1.98596 12.3847 1.98196 15.6487 2.39196 17.1987C2.62196 18.0557 3.29696 18.7327 4.15496 18.9637C5.73696 19.3937 11.985 19.4007 11.985 19.4007C11.985 19.4007 18.25 19.4077 19.816 18.9977C20.2385 18.883 20.6237 18.6601 20.9336 18.3509C21.2435 18.0417 21.4673 17.6569 21.583 17.2347C21.997 15.6697 22 12.4227 22 12.4227C22 12.4227 22.02 9.15768 21.593 7.59168ZM9.99596 15.3937L10.001 9.39368L15.208 12.3987L9.99596 15.3937Z" fill="#06402A"/>
</svg>
