<svg width="38" height="40" viewBox="0 0 38 40" fill="none" xmlns="http://www.w3.org/2000/svg">
<rect width="38" height="40" fill="#06402A"/>
<path d="M12.0023 30V10.4H20.5143C21.7463 10.4 22.8196 10.6147 23.7343 11.044C24.649 11.4733 25.3583 12.08 25.8623 12.864C26.3663 13.648 26.6183 14.572 26.6183 15.636V15.972C26.6183 17.148 26.3383 18.1 25.7783 18.828C25.2183 19.556 24.5276 20.088 23.7063 20.424V20.928C24.453 20.9653 25.0316 21.2267 25.4423 21.712C25.853 22.1787 26.0583 22.804 26.0583 23.588V30H22.3623V24.12C22.3623 23.672 22.241 23.308 21.9983 23.028C21.7743 22.748 21.3916 22.608 20.8503 22.608H15.6983V30H12.0023ZM15.6983 19.248H20.1223C20.9996 19.248 21.681 19.0147 22.1663 18.548C22.6703 18.0627 22.9223 17.428 22.9223 16.644V16.364C22.9223 15.58 22.6796 14.9547 22.1943 14.488C21.709 14.0027 21.0183 13.76 20.1223 13.76H15.6983V19.248Z" fill="white"/>
</svg>
